<svg width="326" height="38" fill="none" xmlns="http://www.w3.org/2000/svg"><path d="M.4047 13.8964h7.04v-7.24h2.88v7.24h7.04v2.88h-7.04v7.2h-2.88v-7.2h-7.04v-2.88ZM23.4 28.8564l10.04-23.44 1.76-1.96-2.36.36h-11.4v-2.96h16.72v1.08l-11.52 26.92H23.4Zm34.9925 8.8c-1.2267-1.28-2.2667-2.6933-3.12-4.24-.8533-1.52-1.5467-3.08-2.08-4.68-.5067-1.6266-.88-3.2533-1.12-4.88-.24-1.6533-.36-3.2266-.36-4.72 0-1.4666.12-3.0133.36-4.64.24-1.6266.6267-3.2533 1.16-4.88.5333-1.6533 1.2267-3.2666 2.08-4.84.88-1.5733 1.9467-3.04 3.2-4.4l1.92 1.4c-1.0667 1.36-1.96 2.7734-2.68 4.24-.6933 1.44-1.2533 2.9067-1.68 4.4-.4267 1.4934-.7333 2.9867-.92 4.48-.16 1.4667-.24 2.88-.24 4.24 0 1.28.0933 2.68.28 4.2.2133 1.4934.5333 3 .96 4.52.4533 1.4934 1.0267 2.96 1.72 4.4.72 1.44 1.5733 2.7467 2.56 3.92l-2.04 1.48Zm4.8509-15.48c0-1.68.44-3.1333 1.32-4.36.88-1.2533 2.2534-2.3866 4.12-3.4-.6666-.4-1.2933-.8133-1.88-1.24-.56-.4533-1.0666-.96-1.52-1.52-.4266-.56-.7733-1.1866-1.04-1.88-.24-.6933-.36-1.4933-.36-2.4 0-1.04.1734-1.9866.52-2.84.3734-.8533.8934-1.5866 1.56-2.2.6934-.6133 1.5067-1.0933 2.44-1.44.96-.3466 2.04-.52 3.24-.52 1.12 0 2.1334.16 3.04.48.9067.32 1.6667.76 2.28 1.32.64.56 1.1334 1.2267 1.48 2 .3467.7734.52 1.6267.52 2.56 0 1.52-.3466 2.8667-1.04 4.04-.6933 1.1467-1.84 2.28-3.44 3.4.6934.4 1.3467.84 1.96 1.32.64.48 1.1867 1.0134 1.64 1.6.48.5867.8534 1.2534 1.12 2 .2667.72.4 1.5467.4 2.48 0 1.1467-.1866 2.2-.56 3.16-.3733.9334-.92 1.7467-1.64 2.44-.72.6667-1.6 1.2-2.64 1.6-1.04.3734-2.2266.56-3.56.56-1.28 0-2.4133-.1866-3.4-.56-.9866-.3733-1.8266-.88-2.52-1.52-.6666-.64-1.1733-1.3866-1.52-2.24-.3466-.88-.52-1.8266-.52-2.84Zm13.24-.4c0-.8-.16-1.4933-.48-2.08-.32-.6133-.7466-1.16-1.28-1.64-.5066-.5066-1.0933-.96-1.76-1.36-.6666-.4-1.36-.7866-2.08-1.16-1.6266.9067-2.7866 1.92-3.48 3.04-.6933 1.12-1.04 2.1867-1.04 3.2 0 .64.1067 1.2534.32 1.84.2134.5867.5334 1.0934.96 1.52.4267.4267.9467.7734 1.56 1.04.64.24 1.3734.36 2.2.36.6667 0 1.3067-.0933 1.92-.28.6134-.2133 1.1467-.5066 1.6-.88.48-.4.8534-.8933 1.12-1.48.2934-.6133.44-1.32.44-2.12Zm-9.48-14.48c0 .7467.1467 1.4134.44 2 .2934.56.68 1.0667 1.16 1.52.5067.4534 1.08.88 1.72 1.28.64.3734 1.3067.7334 2 1.08 1.2-.9333 2.08-1.8533 2.64-2.76.5867-.9066.88-1.9066.88-3 0-1.36-.4266-2.4-1.28-3.12-.8266-.7466-1.8266-1.12-3-1.12-.72 0-1.36.12-1.92.36-.56.24-1.04.5467-1.44.92-.4.3734-.7066.8134-.92 1.32-.1866.48-.28.9867-.28 1.52Zm19.6369 18.6h5.6v-19.36l.4-2.36-1.6 1.88-4.4 3.16-1.52-2.04 8.8-6.8h1.44v25.52h5.4797v2.96H86.6403v-2.96Zm35.3167-18.68c0 1.4134-.266 2.8667-.8 4.36-.506 1.4667-1.186 2.9467-2.04 4.44-.826 1.4934-1.76 2.96-2.8 4.4-1.04 1.4134-2.08 2.76-3.12 4.04l-1.96 1.72v.16l2.56-.44h8.72v2.96h-15.92v-1.16c.587-.6133 1.294-1.3733 2.12-2.28.827-.9066 1.68-1.9066 2.56-3 .907-1.12 1.787-2.2933 2.64-3.52.88-1.2533 1.667-2.52 2.36-3.8.72-1.28 1.294-2.5466 1.72-3.8.427-1.2533.64-2.44.64-3.56 0-1.3066-.373-2.3866-1.12-3.24-.746-.88-1.88-1.32-3.4-1.32-1.013 0-2 .2134-2.96.64-.96.4-1.786.8667-2.48 1.4l-1.32-2.28c.934-.8 2.04-1.4266 3.32-1.88 1.28-.4533 2.654-.68 4.12-.68 1.147 0 2.16.1734 3.04.52.88.32 1.627.7867 2.24 1.4.614.6134 1.08 1.3467 1.4 2.2.32.8267.48 1.7334.48 2.72Zm6.077-6.84c1.227 1.28 2.267 2.6934 3.12 4.24.853 1.52 1.533 3.0934 2.04 4.72.533 1.6.92 3.2267 1.16 4.88.24 1.6267.36 3.1867.36 4.68 0 1.4667-.12 3.0134-.36 4.64-.24 1.6267-.627 3.2667-1.16 4.92-.533 1.6267-1.24 3.2267-2.12 4.8-.853 1.5734-1.907 3.04-3.16 4.4l-1.92-1.4c1.067-1.36 1.96-2.7733 2.68-4.24.72-1.4666 1.28-2.9466 1.68-4.44.427-1.4933.72-2.9733.88-4.44.187-1.4666.28-2.88.28-4.24 0-1.28-.107-2.6666-.32-4.16-.213-1.4933-.547-3-1-4.52-.427-1.52-.987-3-1.68-4.44-.693-1.44-1.533-2.7466-2.52-3.92l2.04-1.48Zm22.475 21.8c0-1.68.44-3.1333 1.32-4.36.88-1.2533 2.253-2.3866 4.12-3.4-.667-.4-1.293-.8133-1.88-1.24-.56-.4533-1.067-.96-1.52-1.52-.427-.56-.773-1.1866-1.04-1.88-.24-.6933-.36-1.4933-.36-2.4 0-1.04.173-1.9866.52-2.84.373-.8533.893-1.5866 1.56-2.2.693-.6133 1.507-1.0933 2.44-1.44.96-.3466 2.04-.52 3.24-.52 1.12 0 2.133.16 3.04.48.907.32 1.667.76 2.28 1.32.64.56 1.133 1.2267 1.48 2 .347.7734.52 1.6267.52 2.56 0 1.52-.347 2.8667-1.04 4.04-.693 1.1467-1.84 2.28-3.44 3.4.693.4 1.347.84 1.96 1.32.64.48 1.187 1.0134 1.64 1.6.48.5867.853 1.2534 1.12 2 .267.72.4 1.5467.4 2.48 0 1.1467-.187 2.2-.56 3.16-.373.9334-.92 1.7467-1.64 2.44-.72.6667-1.6 1.2-2.64 1.6-1.04.3734-2.227.56-3.56.56-1.28 0-2.413-.1866-3.4-.56-.987-.3733-1.827-.88-2.52-1.52-.667-.64-1.173-1.3866-1.52-2.24-.347-.88-.52-1.8266-.52-2.84Zm13.24-.4c0-.8-.16-1.4933-.48-2.08-.32-.6133-.747-1.16-1.28-1.64-.507-.5066-1.093-.96-1.76-1.36-.667-.4-1.36-.7866-2.08-1.16-1.627.9067-2.787 1.92-3.48 3.04-.693 1.12-1.04 2.1867-1.04 3.2 0 .64.107 1.2534.32 1.84.213.5867.533 1.0934.96 1.52.427.4267.947.7734 1.56 1.04.64.24 1.373.36 2.2.36.667 0 1.307-.0933 1.92-.28.613-.2133 1.147-.5066 1.6-.88.48-.4.853-.8933 1.12-1.48.293-.6133.44-1.32.44-2.12Zm-9.48-14.48c0 .7467.147 1.4134.44 2 .293.56.68 1.0667 1.16 1.52.507.4534 1.08.88 1.72 1.28.64.3734 1.307.7334 2 1.08 1.2-.9333 2.08-1.8533 2.64-2.76.587-.9066.88-1.9066.88-3 0-1.36-.427-2.4-1.28-3.12-.827-.7466-1.827-1.12-3-1.12-.72 0-1.36.12-1.92.36-.56.24-1.04.5467-1.44.92-.4.3734-.707.8134-.92 1.32-.187.48-.28.9867-.28 1.52Zm19.637 18.6h5.6v-19.36l.4-2.36-1.6 1.88-4.4 3.16-1.52-2.04 8.8-6.8h1.44v25.52h5.48v2.96h-14.2v-2.96Zm35.317-18.68c0 1.4134-.267 2.8667-.8 4.36-.507 1.4667-1.187 2.9467-2.04 4.44-.827 1.4934-1.76 2.96-2.8 4.4-1.04 1.4134-2.08 2.76-3.12 4.04l-1.96 1.72v.16l2.56-.44h8.72v2.96h-15.92v-1.16c.586-.6133 1.293-1.3733 2.12-2.28.826-.9066 1.68-1.9066 2.56-3 .906-1.12 1.786-2.2933 2.64-3.52.88-1.2533 1.666-2.52 2.36-3.8.72-1.28 1.293-2.5466 1.72-3.8.426-1.2533.64-2.44.64-3.56 0-1.3066-.374-2.3866-1.12-3.24-.747-.88-1.88-1.32-3.4-1.32-1.014 0-2 .2134-2.96.64-.96.4-1.787.8667-2.48 1.4l-1.32-2.28c.933-.8 2.04-1.4266 3.32-1.88 1.28-.4533 2.653-.68 4.12-.68 1.146 0 2.16.1734 3.04.52.88.32 1.626.7867 2.24 1.4.613.6134 1.08 1.3467 1.4 2.2.32.8267.48 1.7334.48 2.72Zm6.317 8.64h9.68v2.96h-9.68v-2.96Zm16.374 10.04h5.6v-19.36l.4-2.36-1.6 1.88-4.4 3.16-1.52-2.04 8.8-6.8h1.44v25.52h5.48v2.96h-14.2v-2.96Zm35.317-18.68c0 1.4134-.267 2.8667-.8 4.36-.507 1.4667-1.187 2.9467-2.04 4.44-.827 1.4934-1.76 2.96-2.8 4.4-1.04 1.4134-2.08 2.76-3.12 4.04l-1.96 1.72v.16l2.56-.44h8.72v2.96h-15.92v-1.16c.586-.6133 1.293-1.3733 2.12-2.28.826-.9066 1.68-1.9066 2.56-3 .906-1.12 1.786-2.2933 2.64-3.52.88-1.2533 1.666-2.52 2.36-3.8.72-1.28 1.293-2.5466 1.72-3.8.426-1.2533.64-2.44.64-3.56 0-1.3066-.374-2.3866-1.12-3.24-.747-.88-1.88-1.32-3.4-1.32-1.014 0-2 .2134-2.96.64-.96.4-1.787.8667-2.48 1.4l-1.32-2.28c.933-.8 2.04-1.4266 3.32-1.88 1.28-.4533 2.653-.68 4.12-.68 1.146 0 2.16.1734 3.04.52.88.32 1.626.7867 2.24 1.4.613.6134 1.08 1.3467 1.4 2.2.32.8267.48 1.7334.48 2.72Zm6.317 8.64h9.68v2.96h-9.68v-2.96Zm16.374 10.04h5.6v-19.36l.4-2.36-1.6 1.88-4.4 3.16-1.52-2.04 8.8-6.8h1.44v25.52h5.48v2.96h-14.2v-2.96Zm35.316-18.68c0 1.4134-.266 2.8667-.8 4.36-.506 1.4667-1.186 2.9467-2.04 4.44-.826 1.4934-1.76 2.96-2.8 4.4-1.04 1.4134-2.08 2.76-3.12 4.04l-1.96 1.72v.16l2.56-.44h8.72v2.96h-15.92v-1.16c.587-.6133 1.294-1.3733 2.12-2.28.827-.9066 1.68-1.9066 2.56-3 .907-1.12 1.787-2.2933 2.64-3.52.88-1.2533 1.667-2.52 2.36-3.8.72-1.28 1.294-2.5466 1.72-3.8.427-1.2533.64-2.44.64-3.56 0-1.3066-.373-2.3866-1.12-3.24-.746-.88-1.88-1.32-3.4-1.32-1.013 0-2 .2134-2.96.64-.96.4-1.786.8667-2.48 1.4l-1.32-2.28c.934-.8 2.04-1.4266 3.32-1.88 1.28-.4533 2.654-.68 4.12-.68 1.147 0 2.16.1734 3.04.52.88.32 1.627.7867 2.24 1.4.614.6134 1.08 1.3467 1.4 2.2.32.8267.48 1.7334.48 2.72Z" fill="#000"/></svg>